Coordinates
version=1
nRows=29
nColumns=24
inDegrees=yes

Units are S.I. units (second, meters, Newtons, ...)
Angles are in degrees.

endheader
time	pelvis_tilt	pelvis_list	pelvis_rotation	pelvis_tx	pelvis_ty	pelvis_tz	hip_flexion_r	hip_adduction_r	hip_rotation_r	knee_angle_r	ankle_angle_r	subtalar_angle_r	mtp_angle_r	hip_flexion_l	hip_adduction_l	hip_rotation_l	knee_angle_l	ankle_angle_l	subtalar_angle_l	mtp_angle_l	lumbar_extension	lumbar_bending	lumbar_rotation
      1.24566667	     -6.35991254	      2.57953583	     -5.16180318	      0.21240602	      1.06789660	      0.28234685	     22.14690888	     -4.57455572	     -2.87172104	    -67.37004913	      3.29786396	     -2.98804465	      9.09506173	     14.19654379	      2.51768135	     -0.64389895	    -13.99681728	     10.13062796	      2.90744233	      4.08187116	     -5.46764358	     -1.64315700	      1.09726429
      1.24983333	     -6.36541885	      2.44487559	     -5.18190687	      0.21784618	      1.06880084	      0.28233594	     22.61123260	     -4.36962689	     -2.98672694	    -66.95896010	      3.55605017	     -2.80491631	      9.08696244	     13.64684517	      2.39851016	     -0.65598928	    -13.54178640	     10.16481383	      2.98095800	      4.06781930	     -5.49572275	     -1.48324539	      1.00879976
      1.25400000	     -6.36958688	      2.31730915	     -5.19830623	      0.22329404	      1.06965278	      0.28231559	     23.06377206	     -4.17678907	     -3.11236096	    -66.49743116	      3.81387063	     -2.63923000	      9.08617629	     13.09628469	      2.28783502	     -0.67806045	    -13.08468616	     10.19556908	      3.05244837	      4.05703230	     -5.50789655	     -1.32384367	      0.93070087
      1.25816667	     -6.31430068	      2.19125757	     -5.20065829	      0.22873159	      1.07057264	      0.28226980	     23.43353269	     -3.99818976	     -3.25201168	    -65.97340826	      4.07831382	     -2.43541612	      9.08476742	     12.47854317	      2.19137610	     -0.65971533	    -12.61776785	     10.25245387	      3.10605449	      4.03775055	     -5.60588591	     -1.16809872	      0.78624207
      1.26233333	     -6.30781449	      2.07236264	     -5.20239186	      0.23417638	      1.07135320	      0.28224586	     23.84740302	     -3.81945952	     -3.39150061	    -65.40433156	      4.33099332	     -2.27634254	      9.08680019	     11.91904768	      2.09550869	     -0.64690459	    -12.16200391	     10.28896867	      3.14460082	      4.01806616	     -5.64202915	     -1.02237439	      0.67004619
      1.26650000	     -6.27180405	      1.93810095	     -5.19847655	      0.23960993	      1.07214182	      0.28221199	     24.21121929	     -3.62796481	     -3.54110327	    -64.77577443	      4.57482006	     -2.14333095	      9.09152853	     11.33031706	      1.98686173	     -0.63150637	    -11.71094692	     10.33052413	      3.19161588	      3.99885352	     -5.71561062	     -0.85941017	      0.56005540
      1.27066667	     -6.26014913	      1.81501937	     -5.19278992	      0.24504193	      1.07282247	      0.28219812	     24.59297083	     -3.44171647	     -3.68470612	    -64.10524867	      4.82174707	     -2.03376891	      9.09799289	     10.77708793	      1.88613546	     -0.62457718	    -11.27805657	     10.36123529	      3.23714564	      3.98396317	     -5.75808584	     -0.72108798	      0.46785817
      1.27483333	     -6.24029736	      1.69038563	     -5.18253707	      0.25047928	      1.07346496	      0.28217604	     24.95078438	     -3.25917513	     -3.83651963	    -63.38549410	      5.05998330	     -1.94023296	      9.10491241	     10.21611419	      1.78531718	     -0.60882020	    -10.84488439	     10.40644628	      3.28078738	      3.97015672	     -5.81089440	     -0.56960528	      0.36952549
      1.27900000	     -6.20298070	      1.57915148	     -5.16665677	      0.25590376	      1.07406358	      0.28214561	     25.28345361	     -3.09770710	     -3.99537708	    -62.63096721	      5.28618235	     -1.85408009	      9.11368264	      9.63415216	      1.70477966	     -0.55544229	    -10.40292915	     10.46635815	      3.28392041	      3.94579540	     -5.89529775	     -0.42381366	      0.20570121
      1.28316667	     -6.17093783	      1.45757691	     -5.14906489	      0.26133629	      1.07461581	      0.28212670	     25.60261849	     -2.92227042	     -4.15546412	    -61.82027971	      5.50170643	     -1.79934028	      9.12177978	      9.06617724	      1.60997944	     -0.52115150	     -9.98011678	     10.51738688	      3.29890025	      3.92288730	     -5.96243163	     -0.27318730	      0.09024089
      1.28733333	     -6.18113682	      1.34991320	     -5.13247072	      0.26676772	      1.07501240	      0.28213146	     25.96164792	     -2.75347565	     -4.30488030	    -60.97783176	      5.72646727	     -1.76653272	      9.12746217	      8.55975588	      1.52220954	     -0.51419537	     -9.58948215	     10.56344538	      3.33281549	      3.90972503	     -5.97718041	     -0.15114784	      0.01748399
      1.29150000	     -6.14378349	      1.24109677	     -5.11272538	      0.27219417	      1.07544396	      0.28213856	     26.25265582	     -2.59124190	     -4.46150238	    -60.08750284	      5.92816643	     -1.73651504	      9.13237051	      7.99857769	      1.43970420	     -0.47833026	     -9.18988072	     10.62662854	      3.34507147	      3.89352242	     -6.05448812	     -0.01697264	     -0.09501622
      1.29566667	     -6.16260305	      1.15411097	     -5.10139311	      0.27763144	      1.07568178	      0.28216330	     26.60664431	     -2.44537145	     -4.60680389	    -59.18261338	      6.13068560	     -1.73696197	      9.13553772	      7.50060953	      1.37282342	     -0.45895925	     -8.79202624	     10.70251742	      3.38168831	      3.88391838	     -6.06145857	      0.09971756	     -0.16957060
      1.29983333	     -6.10903269	      1.05387288	     -5.06886736	      0.28303720	      1.07601703	      0.28216631	     26.85458560	     -2.29942513	     -4.76850715	    -58.20852374	      6.28844444	     -1.73854261	      9.13806465	      6.93262970	      1.30357632	     -0.37497391	     -8.41036783	     10.77310060	      3.32098502	      3.85602374	     -6.16597582	      0.21314000	     -0.36419065
      1.30400000	     -6.14007736	      0.96209839	     -5.05127988	      0.28847373	      1.07611769	      0.28222032	     27.18833004	     -2.14446183	     -4.91068381	    -57.21180439	      6.47991348	     -1.74467014	      9.13953049	      6.47124631	      1.22764887	     -0.36209673	     -8.06470197	     10.84103104	      3.33296719	      3.84265067	     -6.15335344	      0.32032740	     -0.42687807
      1.30816667	     -6.13857510	      0.87698635	     -5.02798126	      0.29389665	      1.07621581	      0.28226866	     27.47432931	     -2.00447527	     -5.05809039	    -56.17549747	      6.63733267	     -1.76337928	      9.13901513	      5.97626838	      1.16357871	     -0.32003913	     -7.71850447	     10.92836557	      3.32349784	      3.82577374	     -6.18925827	      0.42273103	     -0.53258519
      1.31233333	     -6.14924996	      0.79971561	     -5.01243340	      0.29932729	      1.07623320	      0.28234544	     27.76228910	     -1.86607102	     -5.18908399	    -55.10405955	      6.79213564	     -1.78599497	      9.13780246	      5.49857160	      1.10429707	     -0.29060826	     -7.38253114	     11.01829719	      3.32208811	      3.81193670	     -6.20724190	      0.51415178	     -0.61936300
      1.31650000	     -6.17003401	      0.73732432	     -4.99644678	      0.30475145	      1.07615252	      0.28243965	     28.05392876	     -1.74227080	     -5.31548829	    -54.00554061	      6.92978277	     -1.81255484	      9.13517575	      5.03892954	      1.05961118	     -0.25111384	     -7.05807504	     11.11521860	      3.30385011	      3.79581840	     -6.21412966	      0.58793912	     -0.72064233
      1.32066667	     -6.18977896	      0.68840430	     -4.98439674	      0.31017196	      1.07600836	      0.28255017	     28.33486281	     -1.63118611	     -5.42975287	    -52.87609416	      7.06394598	     -1.83331078	      9.13223613	      4.58429852	      1.02884992	     -0.21468856	     -6.74521764	     11.21327579	      3.28006921	      3.77922747	     -6.22292695	      0.64536136	     -0.81550042
      1.32483333	     -6.20801183	      0.63890410	     -4.97247482	      0.31559342	      1.07581089	      0.28267200	     28.59867515	     -1.51717918	     -5.53731998	    -51.70706913	      7.16679109	     -1.87634178	      9.12606054	      4.12409761	      0.99816461	     -0.13960202	     -6.42492287	     11.31704021	      3.21832088	      3.74795048	     -6.24104831	      0.70362728	     -0.94876039
      1.32900000	     -6.28143991	      0.61511522	     -4.97612629	      0.32104603	      1.07543653	      0.28283765	     28.91848937	     -1.41963636	     -5.62645132	    -50.52288795	      7.31269883	     -1.86308856	      9.12468711	      3.73901379	      0.98513349	     -0.14273953	     -6.13841452	     11.43318030	      3.22952846	      3.73918038	     -6.17532674	      0.72791519	     -0.98289965
      1.33316667	     -6.32192725	      0.56917943	     -4.96481218	      0.32647583	      1.07509832	      0.28298585	     29.17108293	     -1.30370980	     -5.71893244	    -49.26869385	      7.40430024	     -1.87151894	      9.12129667	      3.33463221	      0.95195600	     -0.11616317	     -5.89029127	     11.55066473	      3.20465212	      3.72404818	     -6.15569914	      0.78628824	     -1.04744168
      1.33733333	     -6.37020043	      0.53958636	     -4.96677225	      0.33191398	      1.07466888	      0.28317310	     29.42658925	     -1.19840567	     -5.79546483	    -47.99584735	      7.49521254	     -1.87713896	      9.11831977	      2.93314507	      0.93418381	     -0.09235161	     -5.62905768	     11.67626818	      3.17871647	      3.70711659	     -6.13140709	      0.82128517	     -1.11612135
      1.34150000	     -6.44279756	      0.52431438	     -4.97393846	      0.33735627	      1.07413541	      0.28338724	     29.69795976	     -1.10076872	     -5.85395047	    -46.69430037	      7.58724038	     -1.86135371	      9.11677329	      2.56631251	      0.92814791	     -0.07580689	     -5.38532638	     11.80973668	      3.16238692	      3.69333170	     -6.07288382	      0.83419032	     -1.16819526
      1.34566667	     -6.52136698	      0.51731301	     -4.98539685	      0.34280102	      1.07353754	      0.28362332	     29.96269443	     -1.00850000	     -5.90424226	    -45.36213807	      7.67173818	     -1.83600643	      9.11614097	      2.21050711	      0.92933541	     -0.06548651	     -5.15086365	     11.94895357	      3.14493658	      3.68081020	     -6.01713612	      0.83351768	     -1.21458446
      1.34983333	     -6.60570054	      0.51688766	     -4.99689279	      0.34825617	      1.07288244	      0.28386209	     30.21532918	     -0.92008036	     -5.93810217	    -43.99068152	      7.74085551	     -1.80233661	      9.11630712	      1.86988991	      0.93762951	     -0.05255625	     -4.93864534	     12.09195668	      3.11989178	      3.66680509	     -5.94213158	      0.83313348	     -1.25788165
      1.35400000	     -6.68394423	      0.51648338	     -5.01001036	      0.35371271	      1.07219739	      0.28411965	     30.44457989	     -0.83073461	     -5.97018015	    -42.58424672	      7.79470316	     -1.76693528	      9.11815905	      1.52478371	      0.94555540	     -0.03643539	     -4.72985705	     12.24243518	      3.09139131	      3.64956601	     -5.88095014	      0.83303685	     -1.29882263
      1.35816667	     -6.79004515	      0.54096625	     -5.03039399	      0.35916990	      1.07139638	      0.28439950	     30.69602416	     -0.75702430	     -5.96917521	    -41.15789003	      7.85705995	     -1.70178266	      9.12123506	      1.22174726	      0.97773217	     -0.02847454	     -4.54603081	     12.39753147	      3.06845518	      3.63541038	     -5.77786598	      0.80616573	     -1.32813548
      1.36233333	     -6.90598475	      0.55485977	     -5.05031915	      0.36465219	      1.07054435	      0.28470082	     30.93374294	     -0.67036932	     -5.96980493	    -39.69009825	      7.89721885	     -1.63383035	      9.12564976	      0.93260025	      0.99555355	     -0.02106921	     -4.37502694	     12.56139452	      3.04260211	      3.61978993	     -5.66659924	      0.78975732	     -1.34913034
